<svg xmlns="http://www.w3.org/2000/svg" width="180" height="180" viewBox="0 0 180 180"><title>Asset 1</title><g id="Layer_2" data-name="Layer 2"><g id="Layer_1-2" data-name="Layer 1"><g opacity="0.7"><g opacity="0.8"><circle cx="90" cy="90" r="89.5" fill="#3c3"/><path d="M90,1A89,89,0,1,1,1,90,89.11,89.11,0,0,1,90,1m0-1a90,90,0,1,0,90,90A90,90,0,0,0,90,0Z"/></g><path d="M115.67,112.63c0-8.7-7-12.84-23.59-17l-7.21-1.79C64.4,88.75,52.32,81.3,52.32,67.5c0-14.08,16.18-25.12,38.6-25.12,19.68,0,35.28,8.28,36.45,20.15-1.56,2.9-4.87,4.28-8.58,4.28-4.29,0-9.16-1.93-11.5-9.11L104,47.21l10.13,5a75.39,75.39,0,0,0-21-3c-14.43,0-25.54,5.11-25.54,15.46,0,8.83,7.8,13.66,21.64,16.84l7.41,1.79c26.32,6.49,34.31,15.46,34.31,26.77,0,14.77-16,25.26-42.5,25.26-20.86,0-36.65-8.14-37.43-20.15,1.76-2.76,4.48-4.28,8.77-4.28,4.68,0,9,1.8,11.31,9.11l3.31,10.49-10.33-5a95.12,95.12,0,0,0,25.35,3.17C105.34,128.63,115.67,122.84,115.67,112.63ZM87.41,89H95.2v60.3H87.41Zm.19,0V30h7.8V89Z"/></g></g></g></svg>